<svg width="60" height="60" viewBox="0 0 60 60" fill="none" xmlns="http://www.w3.org/2000/svg">
<path d="M46.0564 54C46.5754 54 47 53.6053 47 53.1228V49H13V53.1228C13 53.6053 13.4246 54 13.9436 54H46.0564Z" fill="white"/>
<path d="M22.5207 33.4578C21.7714 36.647 19.0016 38.867 15.7956 38.867H15.1506C12.3049 38.867 10 41.2323 10 44.1404V46.0306C10 46.5734 10.4173 47 10.9485 47H49.0515C49.5732 47 50 46.5734 50 46.0306V44.1404C50 41.2323 47.6856 38.867 44.8494 38.867C43.2464 38.867 41.7477 38.3144 40.5621 37.3547C39.3764 36.4047 38.4942 35.0572 38.1148 33.4578L37.0714 29.0472C36.5212 26.7303 37.0429 24.2681 38.5226 22.1063C39.7178 20.381 40.3439 18.3548 40.3439 16.2319C40.3439 13.1687 39.0064 10.2799 36.6919 8.33158C34.368 6.3733 31.3138 5.59791 28.3163 6.19885C24.285 6.99382 21.1169 10.3285 20.4434 14.4967C19.9786 17.3273 20.6427 20.1288 22.3121 22.3875C23.678 24.2293 24.1333 26.6527 23.5736 29.0374L22.5207 33.4578Z" fill="white"/>
</svg>
