<svg width="62" height="62" viewBox="0 0 62 62" fill="none" xmlns="http://www.w3.org/2000/svg">
<path d="M57.147 20.9542L31.6882 10.1914C31.4923 10.1075 31.2814 10.0642 31.0682 10.0642C30.8551 10.0642 30.6442 10.1075 30.4482 10.1914L4.86353 20.9154C4.57553 21.0424 4.33052 21.2501 4.15819 21.5135C3.98586 21.7769 3.8936 22.0846 3.89259 22.3993C3.89157 22.7141 3.98185 23.0224 4.15249 23.2869C4.32312 23.5513 4.56679 23.7607 4.85397 23.8895C6.36619 24.5374 15.2174 28.2512 16.4593 28.7913L30.4482 34.691C30.8469 34.8502 31.2921 34.8467 31.6882 34.6814C36.1825 32.785 47.783 27.8812 52.0998 26.0498C52.0893 27.249 52.1073 37.3613 52.0998 38.8276C50.1756 39.313 49.3943 42.5931 50.4724 44.3689L49.0482 50.7626C49.0031 50.9544 49.0189 51.1556 49.0936 51.3379C49.1683 51.5203 49.298 51.6748 49.4648 51.7798C49.6303 51.8882 49.8254 51.9427 50.0231 51.9357C50.2209 51.9288 50.4116 51.8608 50.5692 51.741C51.2579 51.2323 52.0866 50.9482 52.9426 50.9273C53.8534 50.9138 54.7428 51.2035 55.471 51.7507C55.635 51.866 55.8303 51.9282 56.0307 51.9289C56.2311 51.9296 56.4269 51.8688 56.5917 51.7547C56.7564 51.6407 56.8822 51.4788 56.9521 51.291C57.0219 51.1031 57.0325 50.8984 56.9823 50.7044L55.1707 44.3398C56.103 42.7416 55.596 39.8711 54.0372 39.0699C54.046 37.5908 54.031 26.4 54.0373 25.236L57.147 23.9185C57.4332 23.7907 57.6764 23.5827 57.847 23.3197C58.0176 23.0567 58.1084 22.7499 58.1084 22.4364C58.1084 22.1228 58.0176 21.816 57.847 21.553C57.6764 21.29 57.4332 21.082 57.147 20.9542Z" fill="white"/>
<path d="M29.6921 36.4734C28.5254 35.9811 15.2403 30.3662 14.5215 30.07V39.5056C14.5281 40.0122 14.6576 40.5096 14.8989 40.9551C15.1402 41.4006 15.4861 41.7808 15.9068 42.0631C20.1658 44.9586 25.1642 46.5754 30.3121 46.7228C35.9531 46.8348 41.4935 45.219 46.1899 42.0921C46.6212 41.8084 46.9764 41.4236 47.2246 40.971C47.4729 40.5185 47.6065 40.012 47.614 39.4959V30.0603C46.9421 30.3519 33.5834 35.9913 32.4434 36.4734C31.5622 36.8365 30.5732 36.8365 29.6921 36.4734Z" fill="white"/>
</svg>
