<svg width="204" height="40" viewBox="0 0 204 40" fill="none" xmlns="http://www.w3.org/2000/svg">
<path d="M0 20C0 9.23045 8.73045 0.5 19.5 0.5C30.2696 0.5 39 9.23045 39 20C39 30.7696 30.2696 39.5 19.5 39.5C8.73045 39.5 0 30.7696 0 20Z" fill="#FFC857"/>
<path d="M11.5001 15.3787V24.6214L19.5 29.2427L27.4999 24.6214V15.3787L19.5 20.0103L11.5001 15.3787Z" fill="#0B2545"/>
<path d="M15.4948 13.0683L19.4999 15.379L23.505 13.0683L19.4999 10.7576L15.4948 13.0683Z" fill="#0B2545"/>
<path d="M51.14 29.5L58.616 10.292H63.208L70.712 29.5H66.764L65.224 25.412H56.432L54.892 29.5H51.14ZM57.58 22.332H64.048L62.116 17.124C62.0413 16.9373 61.948 16.704 61.836 16.424C61.7427 16.1253 61.64 15.808 61.528 15.472C61.416 15.1173 61.304 14.7627 61.192 14.408C61.08 14.0533 60.9773 13.736 60.884 13.456H60.744C60.632 13.8293 60.492 14.2587 60.324 14.744C60.1747 15.2293 60.0253 15.6867 59.876 16.116C59.7267 16.5453 59.6053 16.8813 59.512 17.124L57.58 22.332ZM74.7847 29.5L69.3247 14.772H72.9087L75.2887 21.408C75.4007 21.7253 75.5314 22.1547 75.6807 22.696C75.8487 23.2187 76.0167 23.7693 76.1847 24.348C76.3527 24.908 76.4927 25.4213 76.6047 25.888H76.7447C76.8567 25.4587 76.9874 24.964 77.1367 24.404C77.286 23.844 77.4354 23.2933 77.5847 22.752C77.7527 22.2107 77.902 21.7627 78.0327 21.408L80.3847 14.772H83.8567L78.3687 29.5H74.7847ZM88.3483 29.836C87.9376 29.836 87.4616 29.78 86.9203 29.668C86.3976 29.5747 85.8843 29.388 85.3803 29.108C84.8949 28.828 84.4936 28.4173 84.1763 27.876C83.8589 27.316 83.7003 26.588 83.7003 25.692C83.7003 24.684 83.9243 23.8533 84.3723 23.2C84.8203 22.528 85.4456 22.0053 86.2483 21.632C87.0696 21.24 88.0403 20.9693 89.1603 20.82C90.2989 20.652 91.5403 20.568 92.8843 20.568V19.364C92.8843 18.9347 92.8189 18.552 92.6883 18.216C92.5576 17.88 92.3149 17.6187 91.9603 17.432C91.6243 17.2267 91.1109 17.124 90.4203 17.124C89.7296 17.124 89.1883 17.208 88.7963 17.376C88.4043 17.544 88.1336 17.7493 87.9843 17.992C87.8349 18.2347 87.7603 18.4867 87.7603 18.748V19.14H84.4563C84.4376 19.0467 84.4283 18.9533 84.4283 18.86C84.4283 18.7667 84.4283 18.6547 84.4283 18.524C84.4283 17.684 84.6803 16.956 85.1843 16.34C85.6883 15.724 86.3883 15.2573 87.2843 14.94C88.1803 14.604 89.2163 14.436 90.3923 14.436C91.7363 14.436 92.8376 14.6227 93.6963 14.996C94.5736 15.3693 95.2269 15.9013 95.6563 16.592C96.0856 17.2827 96.3003 18.1227 96.3003 19.112V26.056C96.3003 26.4107 96.4029 26.6627 96.6083 26.812C96.8136 26.9613 97.0376 27.036 97.2803 27.036H98.1763V29.388C97.9896 29.4627 97.7189 29.5467 97.3643 29.64C97.0096 29.752 96.5709 29.808 96.0483 29.808C95.5629 29.808 95.1243 29.724 94.7323 29.556C94.3589 29.4067 94.0416 29.1827 93.7803 28.884C93.5189 28.5853 93.3323 28.2307 93.2203 27.82H93.0523C92.7349 28.212 92.3523 28.5667 91.9043 28.884C91.4749 29.1827 90.9616 29.416 90.3643 29.584C89.7856 29.752 89.1136 29.836 88.3483 29.836ZM89.3843 27.036C89.9443 27.036 90.4389 26.952 90.8683 26.784C91.3163 26.616 91.6803 26.3827 91.9603 26.084C92.2589 25.7853 92.4829 25.4213 92.6323 24.992C92.8003 24.5627 92.8843 24.096 92.8843 23.592V22.92C91.8576 22.92 90.9056 22.9853 90.0283 23.116C89.1696 23.2467 88.4789 23.4893 87.9563 23.844C87.4523 24.1987 87.2003 24.7027 87.2003 25.356C87.2003 25.692 87.2749 25.9907 87.4243 26.252C87.5923 26.4947 87.8349 26.6907 88.1523 26.84C88.4883 26.9707 88.8989 27.036 89.3843 27.036ZM112.256 29.836C110.296 29.836 108.616 29.4907 107.216 28.8C105.835 28.1093 104.771 27.036 104.024 25.58C103.296 24.1053 102.932 22.2107 102.932 19.896C102.932 16.5173 103.754 14.016 105.396 12.392C107.039 10.768 109.326 9.956 112.256 9.956C113.843 9.956 115.271 10.2267 116.54 10.768C117.828 11.3093 118.846 12.1307 119.592 13.232C120.358 14.3147 120.74 15.696 120.74 17.376H117.016C117.016 16.4427 116.811 15.6587 116.4 15.024C116.008 14.3707 115.458 13.876 114.748 13.54C114.039 13.204 113.227 13.036 112.312 13.036C111.043 13.036 109.988 13.288 109.148 13.792C108.308 14.2773 107.683 15.0053 107.272 15.976C106.88 16.9467 106.684 18.1507 106.684 19.588V20.204C106.684 21.66 106.88 22.8733 107.272 23.844C107.683 24.8147 108.299 25.5427 109.12 26.028C109.96 26.5133 111.024 26.756 112.312 26.756C113.283 26.756 114.132 26.5973 114.86 26.28C115.588 25.944 116.148 25.4587 116.54 24.824C116.951 24.1707 117.156 23.3773 117.156 22.444H120.74C120.74 24.124 120.367 25.5147 119.62 26.616C118.874 27.6987 117.856 28.5107 116.568 29.052C115.299 29.5747 113.862 29.836 112.256 29.836ZM128.88 29.836C127.312 29.836 126.005 29.5653 124.96 29.024C123.915 28.464 123.131 27.6147 122.608 26.476C122.085 25.3373 121.824 23.8907 121.824 22.136C121.824 20.3627 122.085 18.916 122.608 17.796C123.131 16.6573 123.915 15.8173 124.96 15.276C126.005 14.716 127.312 14.436 128.88 14.436C130.299 14.436 131.484 14.7067 132.436 15.248C133.407 15.7707 134.135 16.5827 134.62 17.684C135.105 18.7853 135.348 20.2133 135.348 21.968V22.976H125.324C125.361 23.8907 125.501 24.6653 125.744 25.3C125.987 25.916 126.36 26.3827 126.864 26.7C127.387 26.9987 128.068 27.148 128.908 27.148C129.337 27.148 129.739 27.092 130.112 26.98C130.485 26.868 130.812 26.7 131.092 26.476C131.372 26.2333 131.587 25.9347 131.736 25.58C131.904 25.2253 131.988 24.8147 131.988 24.348H135.348C135.348 25.2813 135.18 26.0933 134.844 26.784C134.527 27.4747 134.069 28.044 133.472 28.492C132.893 28.94 132.212 29.276 131.428 29.5C130.644 29.724 129.795 29.836 128.88 29.836ZM125.38 20.568H131.792C131.792 19.952 131.717 19.4293 131.568 19C131.437 18.5707 131.241 18.216 130.98 17.936C130.737 17.656 130.439 17.46 130.084 17.348C129.729 17.2173 129.328 17.152 128.88 17.152C128.152 17.152 127.536 17.2733 127.032 17.516C126.547 17.7587 126.173 18.132 125.912 18.636C125.651 19.14 125.473 19.784 125.38 20.568ZM137.127 29.5V14.772H139.983L140.263 17.096H140.459C140.646 16.6293 140.87 16.2 141.131 15.808C141.411 15.3973 141.766 15.0707 142.195 14.828C142.625 14.5667 143.147 14.436 143.763 14.436C144.062 14.436 144.333 14.464 144.575 14.52C144.837 14.576 145.033 14.632 145.163 14.688V17.908H144.127C143.549 17.908 143.035 17.992 142.587 18.16C142.139 18.3093 141.757 18.552 141.439 18.888C141.141 19.224 140.917 19.644 140.767 20.148C140.618 20.652 140.543 21.24 140.543 21.912V29.5H137.127ZM150.044 29.836C149.129 29.836 148.411 29.6587 147.888 29.304C147.365 28.9307 146.992 28.464 146.768 27.904C146.563 27.3253 146.46 26.7373 146.46 26.14V17.572H144.696V14.772H146.544L147.16 10.656H149.876V14.772H152.424V17.572H149.876V25.804C149.876 26.196 149.979 26.504 150.184 26.728C150.389 26.9333 150.697 27.036 151.108 27.036H152.424V29.388C152.237 29.4627 152.004 29.528 151.724 29.584C151.463 29.6587 151.183 29.7147 150.884 29.752C150.585 29.808 150.305 29.836 150.044 29.836ZM153.837 12.504V9.256H157.253V12.504H153.837ZM153.837 29.5V14.772H157.253V29.5H153.837ZM160.471 29.5V17.572H158.343V14.772H160.471V12.896C160.471 12.2427 160.574 11.6267 160.779 11.048C161.003 10.4507 161.386 9.96533 161.927 9.592C162.469 9.21867 163.225 9.032 164.195 9.032C164.475 9.032 164.755 9.05067 165.035 9.088C165.334 9.12533 165.614 9.18133 165.875 9.256C166.137 9.312 166.361 9.37733 166.547 9.452V11.832H165.147C164.737 11.832 164.419 11.944 164.195 12.168C163.99 12.3733 163.887 12.6813 163.887 13.092V14.772H166.547V17.572H163.887V29.5H160.471ZM168.367 12.504V9.256H171.783V12.504H168.367ZM168.367 29.5V14.772H171.783V29.5H168.367ZM180.62 29.836C179.052 29.836 177.745 29.5653 176.7 29.024C175.655 28.464 174.871 27.6147 174.348 26.476C173.825 25.3373 173.564 23.8907 173.564 22.136C173.564 20.3627 173.825 18.916 174.348 17.796C174.871 16.6573 175.655 15.8173 176.7 15.276C177.745 14.716 179.052 14.436 180.62 14.436C182.039 14.436 183.224 14.7067 184.176 15.248C185.147 15.7707 185.875 16.5827 186.36 17.684C186.845 18.7853 187.088 20.2133 187.088 21.968V22.976H177.064C177.101 23.8907 177.241 24.6653 177.484 25.3C177.727 25.916 178.1 26.3827 178.604 26.7C179.127 26.9987 179.808 27.148 180.648 27.148C181.077 27.148 181.479 27.092 181.852 26.98C182.225 26.868 182.552 26.7 182.832 26.476C183.112 26.2333 183.327 25.9347 183.476 25.58C183.644 25.2253 183.728 24.8147 183.728 24.348H187.088C187.088 25.2813 186.92 26.0933 186.584 26.784C186.267 27.4747 185.809 28.044 185.212 28.492C184.633 28.94 183.952 29.276 183.168 29.5C182.384 29.724 181.535 29.836 180.62 29.836ZM177.12 20.568H183.532C183.532 19.952 183.457 19.4293 183.308 19C183.177 18.5707 182.981 18.216 182.72 17.936C182.477 17.656 182.179 17.46 181.824 17.348C181.469 17.2173 181.068 17.152 180.62 17.152C179.892 17.152 179.276 17.2733 178.772 17.516C178.287 17.7587 177.913 18.132 177.652 18.636C177.391 19.14 177.213 19.784 177.12 20.568ZM193.991 29.836C192.797 29.836 191.761 29.5653 190.883 29.024C190.006 28.4827 189.325 27.6427 188.839 26.504C188.373 25.3653 188.139 23.9 188.139 22.108C188.139 20.3347 188.382 18.888 188.867 17.768C189.353 16.6293 190.025 15.7893 190.883 15.248C191.742 14.7067 192.713 14.436 193.795 14.436C194.467 14.436 195.083 14.5107 195.643 14.66C196.203 14.8093 196.698 15.0427 197.127 15.36C197.557 15.6587 197.921 16.032 198.219 16.48H198.387V9.256H201.803V29.5H198.975L198.695 27.54H198.499C198.033 28.3053 197.398 28.884 196.595 29.276C195.811 29.6493 194.943 29.836 193.991 29.836ZM195.055 26.896C195.839 26.896 196.474 26.7187 196.959 26.364C197.445 26.0093 197.799 25.496 198.023 24.824C198.266 24.152 198.387 23.3307 198.387 22.36V21.996C198.387 21.268 198.322 20.6147 198.191 20.036C198.061 19.4573 197.855 18.972 197.575 18.58C197.314 18.188 196.969 17.8893 196.539 17.684C196.129 17.4787 195.634 17.376 195.055 17.376C194.215 17.376 193.543 17.544 193.039 17.88C192.554 18.1973 192.199 18.7013 191.975 19.392C191.77 20.064 191.667 20.9227 191.667 21.968V22.36C191.667 23.3867 191.77 24.236 191.975 24.908C192.199 25.58 192.554 26.084 193.039 26.42C193.543 26.7373 194.215 26.896 195.055 26.896Z" fill="black"/>
</svg>
